<?xml version="1.0" encoding="UTF-8"?>
<svg id="Layer_1" xmlns="http://www.w3.org/2000/svg" version="1.1" viewBox="0 0 1176.51 899.74">
  <!-- Generator: Adobe Illustrator 29.0.0, SVG Export Plug-In . SVG Version: 2.1.0 Build 186)  -->
  <defs>
    <style>
      .st0 {
        fill: #cca230;
      }

      .st1 {
        fill: #1e4773;
      }

      .st2 {
        fill: #286192;
      }
    </style>
  </defs>
  <g>
    <path class="st0" d="M468.69,768.32c11.69-1.52,7.78-14.55,9.67-23.27,6.6-30.44,55.53-29.22,59.17,2.79.49,4.3-.78,17.08,1.76,19.61,1.59,1.59,16.37,1.24,18.46-.48,3.01-2.48-.33-69.11,1.13-78.06,1.22-4.26,18.79-2.99,18.79-.84v74.28c0,.46,1.83,4.19,2.4,4.61,2.97,2.14,18.63,2.38,19.88-1.95l.14-74.15c-.29-6.63,13.57-4.86,17.75-3.85.89.21,1.11,2.35,1.19,3.16,2.42,26.74-1.81,56.99,0,84.1-2.51,12.81-13.38,11.27-23.51,11.53-5.17.13-9.63.85-15.08-.28-2.34-.49-7.1-3.89-8.02-3.89-.55,0-5.06,2.66-6.68,3.13-5.83,1.7-23.7,1.86-29.4,0-1.82-.59-5.27-3.16-6.7-3.12-.56.01-7.26,4.78-9.76,5.62-11.48,3.87-26.35,2.56-35.16-6.29-7.23,6.37-5.07,4.48-13.76,4.83-35.87,1.41-2.28-.03-18.49,0-24.36.05-49.13,1.72-73.58.77-11.97-.47-27.97-.85-30.28-15.97-3.01-19.67-.72-47.66-.14-67.78.08-2.83-.73-14.07.65-15.46,1.78-1.8,17.54-1.61,17.54.72v73.58c0,3,4.46,6.66,7.36,6.66h13.32c1.98,0-.79-4.22-1.08-5.23-8.32-28.91,12.89-43.95,39.65-42.45,2.63.15,17.84,2.03,17.84,4.58v42.05c0,.07.98,1.05,1.05,1.05h23.9ZM413.95,737.49c-12.87,3.17-14.15,24.55-2.13,29.46,2.17.89,13.69,2.71,13.69.32v-28.73c0-.07-.98-1.05-1.05-1.05h-10.51ZM503.89,739.75c-8.88,1.82-8.21,15.63-7.51,22.61.93,9.29,8.72,12.41,16.74,8.35,7.48-3.8,7.48-18.17,4.83-25.01-2.21-5.71-8.58-7.06-14.06-5.94Z"/>
    <path class="st0" d="M885.62,762.37c1.4,9.56,17.07,5.29,23.83,5.25-8.66-13.24-6.57-33.92,7.94-42.16,9.37-5.32,27.71-6.42,37.61-2.34,4.5,1.86.51,12.34-.09,16.38-7.99-.26-16.76-3.23-24.45.43-10.66,5.08-9.11,26.44,4.54,27.72,3.69.35,22.5-.7,24.04.84s.88,13.68.05,16.19c-.67,2.02-7.7,1.03-10.04,1.18-15.34.94-30.83.12-46.29-.04-4.64-.05-9.62.7-14.38-.28-2.7-.55-6.42-3.85-8.02-3.85-1.41,0-3.76,2.16-5.56,2.8-1.51.54-4.13,1.11-5.74,1.27-5.59.58-18.97-1.12-22.94.18-1.97.65-.91,5.17-1.22,7.19-3.51,22.53-27.31,26.65-46.55,24.98-8.17-.71-5.62-2.61-5.94-9.48-.06-1.26-1.8-7.37.36-7.37h18.22c.55,0,4.74-1.07,5.65-1.36,5.89-1.89,11.13-6.66,10.12-13.36-19.16.65-38.57-3.98-40.64-26.29-2.71-29.23,17.06-40.79,43.78-38.87,2.06.15,15.78,2.09,15.78,3.85v42.05c0,.07.98,1.05,1.05,1.05h10.51c.2,0,1.21-.62,2.07-.73,3.07-.38,6.18,1.08,7.37-3.14l.15-75.53c1.22-4.26,18.79-2.99,18.79-.84v74.28ZM826.75,738.89c-6.82-1.46-13.81-1.71-18.59,4.19-4.21,5.21-4.8,16.83.01,21.74,1.05,1.07,5.69,3.5,7.01,3.5h11.56v-29.43Z"/>
    <path class="st0" d="M1074.13,785.14v18.57c0,3.72-14.84,5.1-17.84,5.29-19.07,1.15-42.93-1.44-50.48-21.76-3.06-8.25-4.17-30.8.2-38.33,3.22-5.56,11.55-2.32,16.95-2.3-.79,12.6-5.38,31.79,7.06,40.24,1.74,1.18,9,3.9,10.82,3.9h14.02c.07,0,1.05-.98,1.05-1.05v-58.87c0-1.25,2.77-1.69,3.81-1.79,2.26-.23,14.41-.59,14.41,1.79v33.64c0,5.61,20.57,4.83,22.09,1.76,1.03-2.08.25-16.35.31-20.01.03-1.68.76-3.22.79-4.88s-2.14-12.26.99-12.26h16.12c.07,0,1.05.98,1.05,1.05v44.85c0,3.27-4.77,7.82-7.71,9.11-8.62,3.78-24.2,1.24-33.64,1.05Z"/>
    <path class="st0" d="M714.62,753.26c2.83-23.82,29.27-24.96,48.03-23.5,4.21.33,8.89.53,9.45,5.27,1.36,11.58.68,34.17.02,46.29-.05.94-.08,4.31-1.2,4.56-1.23.27-6.85.74-8.29.73-1.21,0-7.97-.93-8.42-1.45-2.74-3.19,0-31.43-1.14-37.4-.6-1.85-7.37-1.27-9.19-.98-5.13.82-9.28,4.16-10.16,9.46-2.31,13.79,1.75,32.85-.13,46.82-.12.85-.1,1.38-.67,2.13-1.41,1.85-13.64,2.92-16.54,3.08-21.37,1.2-48.39.24-54.4-24.78-1.65-6.86-2.75-31.58,2.15-36.57,1.87-1.91,10.79-.87,13.68-.28.77.16,1.47.22,1.73,1.11.3,1.04-1.26,9.75-1.34,11.83-1.06,27.77,10.01,32.89,36.43,29.78.98-11.4-1.32-24.96,0-36.09Z"/>
    <path class="st0" d="M276.95,801.26h19.97c.83,0,5.33-1.5,6.44-1.97,5.1-2.18,9.16-6.96,8.63-12.75-16.37.41-34.76-1.96-39.59-20.33-7.83-29.76,12.1-46.55,40.67-44.88,4.52.26,17,.99,17.79,6.03-1.1,21.23,1.98,44.71-.84,65.65-3.07,22.85-27.58,26.36-46.45,25.09-1.52-.1-5.29-.21-5.83-1.87l-.79-14.97ZM311.99,738.19h-11.56c-1.89,0-6.18,3.65-7.36,5.26-4.08,5.59-4.47,17.96,1.44,22.38.64.48,4.8,2.49,5.21,2.49h12.26v-30.13Z"/>
    <path class="st0" d="M167.27,729.08c1.09.3,1.64,2.06,1.79,3.12,1.85,13.75-1.32,31.91-.2,46.12-.94,5.21-6.69,7.15-11.37,7.55-20.35,1.75-43.17-1.35-63.79-.04-28.96-2.58-39.48-29.01-28.28-53.83.89-.55,14.12.76,14.51,1.39.35,9.51-3.4,20.65,4.38,28.21,3.56,3.46,12.22,6.73,17.09,6.73h48.36c2.43,0,.36-15.04.32-17.14s-.37-22.11.73-22.11c4.33.78,12.72-1.05,16.47,0Z"/>
    <path class="st0" d="M233.15,768.32c.89-.1,2.41-1.05,3.73-.82.53-.91.72-1.99.82-3.03,2.25-23.03-2.15-49.83-.03-72.92.09-1.02.66-4.52,1.79-4.52h16.12c.07,0,1.05.98,1.05,1.05v90.4c0,.8-2.6,4.16-3.55,4.86-1.94,1.44-4.94,2.19-7.32,2.49-14.81,1.85-39.56,1.68-54.68.74-1.56-.1-8.73-.84-8.73-1.78v-15.42c0-.07.98-1.05,1.05-1.05h49.76Z"/>
    <path class="st0" d="M216.68,696.14v62.02c0,.07-.98,1.05-1.05,1.05h-15.42c-.12,0-1.75-1.63-1.75-1.75v-59.57c0-.52,1.7-1.59,2.47-1.73.97-.19,15.75-.81,15.75-.02Z"/>
    <path class="st0" d="M97.34,705.4c4.3-.96,13.3-1.21,14.18,4.45,1.69,10.92-1.96,14.61-12.88,12.88-7.64-1.21-6.8-16.1-1.29-17.33Z"/>
    <path class="st0" d="M119.49,706.87c2.21-2.41,12.43-2.4,14.86-.24,2.62,2.33,2.52,12.31.01,14.76-1.93,1.88-9.82,1.83-12.33,1.06-5.24-1.6-5.49-12.36-2.54-15.58Z"/>
    <path class="st0" d="M1033.99,705.4c1.91-.43,7.63-.42,9.62-.11,6.17.96,7.23,16.47-1.34,17.49-4.63.55-11.61.56-12.29-5.26-.46-3.92-.81-11.05,4.02-12.13Z"/>
    <path class="st0" d="M1104.77,812.28c-3.06,3.06-14.84,2.98-16.32-3.26-2.37-9.98,2.84-14.25,12.5-12.5,6.7,1.22,7.09,12.49,3.82,15.76Z"/>
    <path class="st0" d="M396.99,693.55c1.84-1.48,11.92-1.45,13.87.09,2.71,2.14,2.96,12.12.98,14.4-2.47,2.85-12.98,3.09-15.46.08-1.69-2.04-1.66-12.73.62-14.57Z"/>
    <path class="st0" d="M420.77,708.6c-2.16-2.23-2.18-12.72.47-14.98,1.84-1.57,12.12-1.58,14.06.09,2.13,1.83,2.06,12.45.44,14.41-2.3,2.78-12.77,2.75-14.97.48Z"/>
    <path class="st0" d="M681.49,816.13c1.85-.41,7-.4,8.92-.11,6.14.96,5.56,13.76,2.08,16-1.6,1.03-9.11,1.13-11.12.75-5.32-1-5.89-15.31.13-16.65Z"/>
    <path class="st0" d="M703.61,831.89c-2.41-1.95-2.31-11.82-.22-14.17,2.27-2.55,11.33-2.51,13.7-.35,3.31,3.02,3.34,13.07-1.25,14.9-2.18.87-10.45,1.06-12.23-.38Z"/>
  </g>
  <g>
    <path class="st2" d="M573.33,76.22v120.89c-2.3-.34-6.48,1.23-7.01-1.75v-114.58s-30.85,20.82-30.85,20.82c-.89,52.24,1.21,104.64.05,156.87-.05,2.4-1.02,4.68-.79,6.99.32,3.3,7.65,7.22,10.57,8.74v300.64c23.51-1.79,46.6-8.11,69.06-14.69l.33-1.07,1.42-479.23-28.46-13.08c-2.68-.19-11.64,7.55-14.32,9.45Z"/>
    <path class="st2" d="M647.62,157.86v-64.82c-1.21-1.9-3.1-.96-4.66-1.58-4.95-1.97-9.84-5.33-14.96-6.48v272.61l68.01-13.78-.15-227.89c-1.73-.65-3.4-1.44-5.03-2.33-.55-.3-3.97-3.62-3.97-.94v128.6c-2.24.13-4.39.39-4.24-2.42l-.1-129.55c-.38-1.25-1.65-1.68-2.63-2.27-2.86-1.72-24.51-11.76-26.32-11.56-.62.07-1.75.63-1.75,1.08v61.32h-4.2Z"/>
    <polygon class="st2" points="522.88 258.78 522.88 110.21 501.84 124.72 501.8 243.73 502 244.62 522.88 258.78"/>
    <path class="st2" d="M535.99,277.71c-7.92-5.94-16.33-11.98-24.51-17.75-11.23-7.92-22.64-15.62-33.93-23.47-15.33,6.67-30.71,13.32-45.92,20.25-2.79,1.27-5.63,2.56-8.77,3.98-2.99,1.37-22.01,9.68-22.52,11.13l-.09,280.19c.34,1.76,11.37,9.02,13.06,9.3,2.4.4,10-5.45,11.45-4.03.17,6.05-2,9.5,5.61,9.81v-13.31c5.58-2.35,10.96-5.41,16.82-7.01v17.52l-10.51,4.55c4.04,2.01,12.53,4.64,16.84,3.53l18.9-8.08v11.56c0,.4,1.17,1.08,1.75,1.06,21.35,1.68,42.87,2.36,64.12-.71v-297.83c-.76-.12-1.68-.23-2.3-.69ZM405.14,279.45c5.97-3.37,12.88-7.02,19.62-8.06v16.47c-6.14,3.55-12.98,6.17-19.62,8.76v-17.17ZM405.14,307.83c6.66-2.04,12.73-6.81,19.62-7.71v16.82l-19.62,7.71v-16.82ZM405.14,336.91c5.84-3.88,13.02-6.45,19.62-8.76v17.52c0,.69-4.47,1.54-4.92,1.73-4.83,2.03-9.57,4.96-14.7,5.98v-16.47ZM405.14,364.59c6.58-2.16,12.74-6.78,19.62-7.71v16.47c0,1.43-16.92,7.92-19.62,8.76v-17.52ZM404.44,409.81c-.53-3.7.66-7.05.76-10.52.06-1.96-1.57-3.96-.13-5.68,6.41-2.71,12.93-6.71,19.69-7.99v16.47c-.68.81-1.64,1.17-2.54,1.66-2.2,1.19-14.96,6.84-16.73,7.1-1.43.22-.92-.12-1.05-1.04ZM405.14,496.34v-17.52c6.78-1.86,12.84-6.11,19.62-7.71v17.52l-19.62,7.71ZM424.76,499.85v16.47c-5.84,3.66-13.03,6.39-19.62,8.76v-17.52l19.62-7.71ZM405.14,467.61v-16.47c6.21-3.43,12.99-6.55,19.62-8.76v17.52l-19.62,7.71ZM405.14,438.88v-16.82l17.99-8.31c.57-.37,1.63.78,1.63.95v15.42c0,1.47-16.92,8.37-19.62,8.76ZM424.07,545.76c-1.78,1.99-15.6,6.66-18.93,7.35v-16.82c2.67-.63,17.95-8.55,18.92-7.71.58,3.08,1.63,15.36.01,17.18ZM447.19,535.24c-5.06,3.09-11.05,6.06-16.82,7.36v-17.52l16.82-7.01v17.17ZM447.19,506.5c-5.07,3.18-11.16,5.67-16.82,7.36v-17.52c5.79-1.56,10.84-5.47,16.82-6.3v16.46ZM447.19,477.77c-4.9,3.69-11.21,5.54-16.82,8.06v-17.17l16.82-8.06v17.17ZM447.19,450.09c-5.13,3.12-11.38,4.2-16.82,7.01v-18.22l16.82-6.31v17.52ZM447.19,421.36l-16.82,7.01v-17.17l16.82-7.36v17.52ZM447.19,392.27c-5.07,3.18-11.16,5.67-16.82,7.36v-17.52l16.82-7v17.16ZM447.19,363.54c-5.15,3.22-11.17,5.12-16.82,7.36v-17.52l16.82-7.01v17.17ZM447.19,335.86l-16.82,7.01v-18.22l16.82-7.01v18.22ZM447.19,307.13l-16.82,7.01v-17.17l16.82-7.36v17.52ZM447.19,278.04l-16.82,7.36v-17.17c.44-.49.85-1.03,1.45-1.35,4.1-2.19,10.96-3.79,15.37-6v17.16ZM452.79,260.52c.15-.87,1.09-2.44,1.83-3.07.78-.66,16.5-7.83,17.46-7.75,2.54.19-.18,15.7.22,18.07-6.68,2.14-12.85,5.96-19.51,7.82.55-4.58-.74-10.71,0-15.07ZM472.3,324.53c-6.41,2.2-12.36,6.07-18.81,7.83v-17.17l17.99-8.67c2.64.23.91,2.56.9,4.43-.02,4.53.2,9.07-.08,13.58ZM472.39,283.62c-.15,4.31.19,8.66-.01,12.97-6.65.89-12.46,5.16-18.89,7.03v-17.52c6.05-1.28,12.28-5.96,18.01-7.58,3.05-.86.95,3.3.89,5.1ZM453.61,371.72l18.81-7.83v18.22l-19.62,7.71c-.07-6.06-.19-12.12.81-18.1ZM473.12,553.11l-19.63,8.41v-18.22c6.79-1.87,12.84-6.12,19.63-7.71v17.52ZM452.79,532.78v-17.16c6.1-3.66,13.06-6,19.63-8.76v18.22c-6.73,2.02-12.88,6.01-19.63,7.7ZM472.3,496.22l-19.51,8.53c.62-5.2-.84-12.22,0-17.17.08-.47.72-1.49,1.25-1.74l19.07-7.71c-.06,6.04.41,12.14-.81,18.09ZM473.12,450.09v16.47c-5.76,4.26-12.63,6.5-19.63,8.76v-17.17c6.21-3.24,12.79-6.42,19.63-8.06ZM453.49,446.59v-17.17c6.07-3.07,12.46-6.19,18.93-8.06v17.52c-6.57,1.87-12.37,6.14-18.93,7.71ZM472.77,409.45c-2.17,1.3-17.88,9.16-18.93,9.09-1.92-.13-.36-4.61-.32-5.91.13-4.05-.27-8.14.09-12.18l18.8-7.82c.39,5.58,1.37,11.2.36,16.82ZM471.99,353.31l-18.5,7.78v-18.22l18.92-7.71c-.75,3.88,2.6,15.79-.42,18.15Z"/>
    <path class="st2" d="M377.5,452.59c2.06-3.15,4.5-6.04,6.61-9.16-.43-.41-1.68.47-2.04.75-2.06,1.62-9.06,10.58-11.24,13.29-55.88,69.46-29.4,133.89,53.24,156.96,105.3,29.4,247.93-10.23,334.22-74.34,40.19-29.86,90.81-84.61,73.44-139.2-15.09-47.41-75.6-66.82-120.33-70.63-.17,1,1.22.95,1.95,1.18,4.27,1.34,9.04,1.98,13.46,3.37,78.24,24.58,92.17,88.65,37.87,148.58-70.56,77.87-216.81,122.64-318.89,99.5-66.08-14.98-111.84-63.8-68.28-130.31Z"/>
    <path class="st2" d="M749.27,480.62l-.39-109.72-37.17-23.8-88.4,17.37-2.33,1.17v192.37l47.65-18.93-42.04,6.32v-9.81l72.87-13.68c13.92-8.89,28.52-18.81,40.67-30.11,1.61-1.5,7.68-7.06,8.44-8.38.54-.95.85-1.68.7-2.8ZM709.68,469.06l-83.09,15.37v-9.81l80.26-14.7,3.14-.02-.31,9.16ZM709.99,479.52v9.82l-80.27,14.7-3.13.02-.04-8.71,83.44-15.83ZM709.68,448.74l-83.09,15.37v-9.81l80.26-14.71h3.14s-.31,9.15-.31,9.15ZM626.59,443.78v-9.81l83.04-15.43.05,9.87-83.09,15.37ZM626.59,423.46v-9.81l80.26-14.7,3.14-.02.04,8.09-83.44,16.44ZM626.9,373.66c27.42-6.22,55.4-10.84,83.09-16.07v9.81l-83.4,15.42.31-9.16ZM626.89,393.98l83.1-16.07v9.81l-82.35,15.42c-1.46.1-.9,0-1.05-1.03-.19-1.27-.2-7.44.3-8.13ZM708.8,510.23l-82.2,14.84c.45-2.47-1.18-8.45,1.18-9.67l82.2-14.85c-.43,2.19,1.13,8.81-1.18,9.68Z"/>
    <path class="st2" d="M573.33,76.22c2.68-1.9,11.64-9.64,14.32-9.45l28.46,13.08-1.42,479.23-.33,1.07c-22.46,6.58-45.55,12.9-69.06,14.69v-300.64c-2.92-1.52-10.24-5.44-10.57-8.74-.23-2.31.73-4.59.79-6.99,1.17-52.23-.93-104.62-.05-156.87l30.84-20.82v114.58c.54,2.98,4.72,1.41,7.01,1.75v-120.89Z"/>
    <path class="st2" d="M535.99,277.71c-7.92-5.94-16.33-11.98-24.51-17.75-11.23-7.92-22.64-15.62-33.93-23.47-15.33,6.67-30.71,13.32-45.92,20.25-2.79,1.27-5.63,2.56-8.77,3.98-2.99,1.37-22.01,9.68-22.52,11.13l-.09,280.19c.34,1.76,11.37,9.02,13.06,9.3,2.4.4,10-5.45,11.45-4.03.17,6.05-2,9.5,5.61,9.81v-13.31c5.58-2.35,10.96-5.41,16.82-7.01v17.52l-10.51,4.55c4.04,2.01,12.53,4.64,16.84,3.53l18.9-8.08v11.56c0,.4,1.17,1.08,1.75,1.06,21.35,1.68,42.87,2.36,64.12-.71v-297.83c-.76-.12-1.68-.23-2.3-.69ZM405.14,279.45c5.97-3.37,12.88-7.02,19.62-8.06v16.47c-6.14,3.55-12.98,6.17-19.62,8.76v-17.17ZM405.14,307.83c6.66-2.04,12.73-6.81,19.62-7.71v16.82l-19.62,7.71v-16.82ZM405.14,336.91c5.84-3.88,13.02-6.45,19.62-8.76v17.52c0,.69-4.47,1.54-4.92,1.73-4.83,2.03-9.57,4.96-14.7,5.98v-16.47ZM405.14,364.59c6.58-2.16,12.74-6.78,19.62-7.71v16.47c0,1.43-16.92,7.92-19.62,8.76v-17.52ZM404.44,409.81c-.53-3.7.66-7.05.76-10.52.06-1.96-1.57-3.96-.13-5.68,6.41-2.71,12.93-6.71,19.69-7.99v16.47c-.68.81-1.64,1.17-2.54,1.66-2.2,1.19-14.96,6.84-16.73,7.1-1.43.22-.92-.12-1.05-1.04ZM405.14,496.34v-17.52c6.78-1.86,12.84-6.11,19.62-7.71v17.52l-19.62,7.71ZM424.76,499.85v16.47c-5.84,3.66-13.03,6.39-19.62,8.76v-17.52l19.62-7.71ZM405.14,467.61v-16.47c6.21-3.43,12.99-6.55,19.62-8.76v17.52l-19.62,7.71ZM405.14,438.88v-16.82l17.99-8.31c.57-.37,1.63.78,1.63.95v15.42c0,1.47-16.92,8.37-19.62,8.76ZM424.07,545.76c-1.78,1.99-15.6,6.66-18.93,7.35v-16.82c2.67-.63,17.95-8.55,18.92-7.71.58,3.08,1.63,15.36.01,17.18ZM447.19,535.24c-5.06,3.09-11.05,6.06-16.82,7.36v-17.52l16.82-7.01v17.17ZM447.19,506.5c-5.07,3.18-11.16,5.67-16.82,7.36v-17.52c5.79-1.56,10.84-5.47,16.82-6.3v16.46ZM447.19,477.77c-4.9,3.69-11.21,5.54-16.82,8.06v-17.17l16.82-8.06v17.17ZM447.19,450.09c-5.13,3.12-11.38,4.2-16.82,7.01v-18.22l16.82-6.31v17.52ZM447.19,421.36l-16.82,7.01v-17.17l16.82-7.36v17.52ZM447.19,392.27c-5.07,3.18-11.16,5.67-16.82,7.36v-17.52l16.82-7v17.16ZM447.19,363.54c-5.15,3.22-11.17,5.12-16.82,7.36v-17.52l16.82-7.01v17.17ZM447.19,335.86l-16.82,7.01v-18.22l16.82-7.01v18.22ZM447.19,307.13l-16.82,7.01v-17.17l16.82-7.36v17.52ZM447.19,278.04l-16.82,7.36v-17.17c.44-.49.85-1.03,1.45-1.35,4.1-2.19,10.96-3.79,15.37-6v17.16ZM452.79,260.52c.15-.87,1.09-2.44,1.83-3.07.78-.66,16.5-7.83,17.46-7.75,2.54.19-.18,15.7.22,18.07-6.68,2.14-12.85,5.96-19.51,7.82.55-4.58-.74-10.71,0-15.07ZM472.3,324.53c-6.41,2.2-12.36,6.07-18.81,7.83v-17.17l17.99-8.67c2.64.23.91,2.56.9,4.43-.02,4.53.2,9.07-.08,13.58ZM472.39,283.62c-.15,4.31.19,8.66-.01,12.97-6.65.89-12.46,5.16-18.89,7.03v-17.52c6.05-1.28,12.28-5.96,18.01-7.58,3.05-.86.95,3.3.89,5.1ZM453.61,371.72l18.81-7.83v18.22l-19.62,7.71c-.07-6.06-.19-12.12.81-18.1ZM473.12,553.11l-19.63,8.41v-18.22c6.79-1.87,12.84-6.12,19.63-7.71v17.52ZM452.79,532.78v-17.16c6.1-3.66,13.06-6,19.63-8.76v18.22c-6.73,2.02-12.88,6.01-19.63,7.7ZM472.3,496.22l-19.51,8.53c.62-5.2-.84-12.22,0-17.17.08-.47.72-1.49,1.25-1.74l19.07-7.71c-.06,6.04.41,12.14-.81,18.09ZM473.12,450.09v16.47c-5.76,4.26-12.63,6.5-19.63,8.76v-17.17c6.21-3.24,12.79-6.42,19.63-8.06ZM453.49,446.59v-17.17c6.07-3.07,12.46-6.19,18.93-8.06v17.52c-6.57,1.87-12.37,6.14-18.93,7.71ZM472.77,409.45c-2.17,1.3-17.88,9.16-18.93,9.09-1.92-.13-.36-4.61-.32-5.91.13-4.05-.27-8.14.09-12.18l18.8-7.82c.39,5.58,1.37,11.2.36,16.82ZM471.99,353.31l-18.5,7.78v-18.22l18.92-7.71c-.75,3.88,2.6,15.79-.42,18.15Z"/>
    <path class="st1" d="M647.62,157.86h4.2v-61.32c0-.45,1.13-1.01,1.75-1.08,1.8-.2,23.46,9.84,26.32,11.56.98.59,2.26,1.03,2.63,2.27l.1,129.55c-.15,2.81,2,2.54,4.24,2.42V112.66c0-2.68,3.41.63,3.97.94,1.63.89,3.3,1.68,5.03,2.33l.15,227.89-68.01,13.78V84.98c5.12,1.15,10.01,4.51,14.96,6.48,1.56.62,3.46-.32,4.66,1.58v64.82Z"/>
    <path class="st2" d="M749.27,480.62l-.39-109.72-37.17-23.8-88.4,17.37-2.33,1.17v192.37l47.65-18.93-42.04,6.32v-9.81l72.87-13.68c13.92-8.89,28.52-18.81,40.67-30.11,1.61-1.5,7.68-7.06,8.44-8.38.54-.95.85-1.68.7-2.8ZM709.68,469.06l-83.09,15.37v-9.81l80.26-14.7,3.14-.02-.31,9.16ZM709.99,479.52v9.82l-80.27,14.7-3.13.02-.04-8.71,83.44-15.83ZM709.68,448.74l-83.09,15.37v-9.81l80.26-14.71h3.14s-.31,9.15-.31,9.15ZM626.59,443.78v-9.81l83.04-15.43.05,9.87-83.09,15.37ZM626.59,423.46v-9.81l80.26-14.7,3.14-.02.04,8.09-83.44,16.44ZM626.9,373.66c27.42-6.22,55.4-10.84,83.09-16.07v9.81l-83.4,15.42.31-9.16ZM626.89,393.98l83.1-16.07v9.81l-82.35,15.42c-1.46.1-.9,0-1.05-1.03-.19-1.27-.2-7.44.3-8.13ZM708.8,510.23l-82.2,14.84c.45-2.47-1.18-8.45,1.18-9.67l82.2-14.85c-.43,2.19,1.13,8.81-1.18,9.68Z"/>
    <polygon class="st2" points="522.88 258.78 502 244.62 501.8 243.73 501.84 124.72 522.88 110.21 522.88 258.78"/>
    <path class="st1" d="M377.5,452.59c-43.55,66.51,2.2,115.33,68.28,130.31,102.08,23.14,248.33-21.63,318.89-99.5,54.31-59.94,40.37-124-37.87-148.58-4.42-1.39-9.19-2.02-13.46-3.37-.73-.23-2.12-.18-1.95-1.18,44.73,3.8,105.25,23.21,120.33,70.63,17.37,54.59-33.25,109.34-73.44,139.2-86.28,64.12-228.92,103.74-334.22,74.34-82.64-23.07-109.12-87.5-53.24-156.96,2.18-2.7,9.18-11.67,11.24-13.29.36-.28,1.62-1.17,2.04-.75-2.11,3.12-4.55,6.02-6.61,9.16Z"/>
  </g>
</svg>